<svg width="556" height="75" viewBox="0 0 556 75" fill="none" xmlns="http://www.w3.org/2000/svg">
<path d="M23.138 64.468C23.184 64.468 23.23 64.468 23.23 64.514C23.276 64.514 23.276 64.56 23.23 64.606L21.482 70.954C21.436 71 21.39 71.046 21.344 71.046H1.932C1.886 71.046 1.84 71 1.84 70.954C1.794 70.908 1.794 70.862 1.84 70.862L3.45 67.872V42.02L1.84 38.984C1.794 38.984 1.794 38.938 1.84 38.892C1.84 38.846 1.886 38.846 1.932 38.846H10.35C10.442 38.846 10.488 38.892 10.488 38.938V64.468H23.138ZM43.9544 38.846C44.0464 38.846 44.0924 38.892 44.0924 38.938V45.286C44.0924 45.332 44.0464 45.424 43.9544 45.424H31.9024V51.45H43.0344C43.0344 51.45 43.0804 51.496 43.1264 51.496C43.1264 51.542 43.1264 51.588 43.1264 51.634L41.3784 57.752C41.3784 57.798 41.3324 57.844 41.2864 57.844H31.9024V64.468H43.9544C44.0464 64.468 44.0924 64.514 44.0924 64.56V70.908C44.0924 70.954 44.0464 71.046 43.9544 71.046H25.0944C25.0484 71.046 25.0024 70.954 25.0024 70.908V38.938V38.892C25.0024 38.892 25.0024 38.892 25.0024 38.846C25.0484 38.846 25.0484 38.846 25.0484 38.846C25.0944 38.846 25.0944 38.846 25.0944 38.846H43.9544ZM78.4703 53.014C78.5623 53.014 78.6083 53.06 78.6083 53.106C78.6543 53.704 78.6543 54.302 78.6543 54.946C78.6543 55.268 78.6543 55.636 78.6543 55.958C78.6083 57.016 78.4703 58.028 78.2863 58.994C78.1483 59.638 77.9643 60.328 77.7803 60.972L77.6423 61.432C75.3883 67.872 69.8222 71.506 62.3243 71.506C56.0223 71.506 50.2262 67.78 47.5582 61.984L47.3742 61.524C46.4542 59.454 46.0402 57.2 46.0402 54.946C46.0402 45.792 53.3542 38.34 62.3243 38.34C69.6383 38.34 74.7443 41.238 77.1363 46.758C77.1823 46.85 77.1363 46.896 77.0903 46.942L71.0183 49.886C70.9723 49.932 70.9263 49.932 70.9263 49.886C70.8802 49.886 70.8802 49.886 70.8343 49.84C69.4543 46.758 66.6023 45.102 62.5543 45.102C57.4482 45.102 53.2623 49.518 53.2623 54.946C53.2623 60.328 57.4482 64.744 62.5543 64.744C66.7403 64.744 69.7763 62.72 71.1103 59.086H59.9783C59.9323 59.086 59.8863 59.04 59.8863 59.04C59.8403 58.994 59.8403 58.948 59.8863 58.902L62.7383 53.06C62.7383 53.014 62.7843 53.014 62.8303 53.014H78.4703ZM100.335 38.846C100.427 38.846 100.473 38.892 100.473 38.938V45.286C100.473 45.332 100.427 45.424 100.335 45.424H88.283V51.45H99.415C99.415 51.45 99.461 51.496 99.507 51.496C99.507 51.542 99.507 51.588 99.507 51.634L97.759 57.752C97.759 57.798 97.713 57.844 97.667 57.844H88.283V64.468H100.335C100.427 64.468 100.473 64.514 100.473 64.56V70.908C100.473 70.954 100.427 71.046 100.335 71.046H81.475C81.429 71.046 81.383 70.954 81.383 70.908V38.938V38.892C81.383 38.892 81.383 38.892 81.383 38.846C81.429 38.846 81.429 38.846 81.429 38.846C81.475 38.846 81.475 38.846 81.475 38.846H100.335ZM132.873 38.846C132.965 38.846 133.011 38.892 133.011 38.938V70.908C133.011 70.954 132.965 71.046 132.873 71.046H126.157H125.789C125.743 71.046 125.697 71 125.697 70.954L111.253 50.99V70.908C111.253 70.954 111.207 71.046 111.115 71.046H104.353C104.261 71.046 104.215 70.954 104.215 70.908V42.02L102.605 38.984C102.559 38.984 102.559 38.938 102.605 38.892C102.605 38.846 102.651 38.846 102.697 38.846H111.115C111.161 38.846 111.161 38.846 111.161 38.846C111.207 38.846 111.207 38.846 111.207 38.892L126.065 59.408V38.938C126.065 38.892 126.111 38.846 126.157 38.846H132.873ZM148.129 38.846C157.007 38.846 164.229 46.068 164.229 54.946C164.229 63.824 157.007 71.046 148.129 71.046H137.227C137.181 71.046 137.135 70.954 137.135 70.908V38.938V38.892C137.135 38.892 137.135 38.892 137.135 38.846C137.181 38.846 137.181 38.846 137.181 38.846C137.227 38.846 137.227 38.846 137.227 38.846H148.129ZM148.129 64.008C153.143 64.008 157.237 59.914 157.237 54.946C157.237 49.932 153.143 45.838 148.129 45.838H144.035V64.008H148.129ZM186.099 54.348C186.789 54.946 187.387 55.59 187.893 56.28C188.997 57.844 189.595 59.684 189.595 61.478C189.595 61.708 189.595 61.938 189.595 62.214L189.503 62.72C189.043 65.848 186.881 68.516 183.799 70.08C181.959 71 179.843 71.506 177.543 71.506C171.701 71.506 166.687 68.01 165.721 63.18C165.675 63.134 165.721 63.088 165.767 63.088L167.331 62.214L167.883 61.938L171.333 60.098C171.379 60.052 171.379 60.052 171.425 60.098C171.471 60.098 171.471 60.144 171.517 60.144C172.115 62.996 174.783 65.066 177.865 65.066C180.441 65.066 182.511 63.548 182.511 61.708C182.511 60.696 181.821 59.684 180.671 59.04C179.843 58.58 179.015 58.442 178.187 58.396C177.911 58.35 177.635 58.35 177.359 58.304C176.347 58.212 175.243 58.12 174.231 57.844C172.989 57.476 171.793 56.97 170.735 56.28C168.389 54.716 166.733 52.37 166.273 49.84L166.181 49.334C166.181 49.196 166.181 49.058 166.135 48.874C166.135 48.69 166.135 48.46 166.135 48.23C166.135 42.71 171.333 38.202 177.727 38.202C182.833 38.202 187.433 41.192 188.859 45.47C188.859 45.516 188.813 45.562 188.767 45.608L187.157 46.298L186.651 46.528L182.695 48.23C182.649 48.276 182.603 48.276 182.557 48.23C182.557 48.23 182.511 48.184 182.511 48.138C182.511 46.344 180.441 44.872 177.865 44.872C175.289 44.872 173.219 46.344 173.219 48.138C173.219 49.702 174.553 50.714 175.749 51.128C176.669 51.404 177.681 51.496 178.647 51.542C179.521 51.634 180.441 51.68 181.315 51.91C183.109 52.416 184.765 53.244 186.099 54.348Z" fill="#C28F2C"/>
<path d="M25.668 10.322C25.668 12.714 24.748 14.922 23.276 16.578C24.932 18.326 25.898 20.672 25.898 23.248C25.898 28.63 21.528 33.046 16.146 33.046H1.932C1.886 33.046 1.84 33 1.84 32.954C1.794 32.908 1.794 32.862 1.84 32.862L3.45 29.872V4.02L1.84 0.983998C1.794 0.983998 1.794 0.937999 1.84 0.891999C1.84 0.845997 1.886 0.845997 1.932 0.845997H9.384C9.43 0.799998 9.43 0.799998 9.476 0.799998H16.146C21.39 0.799998 25.668 5.078 25.668 10.322ZM10.488 13.45H16.146C17.802 13.45 19.182 12.116 19.182 10.414C19.182 8.758 17.802 7.424 16.146 7.424H10.488V13.45ZM16.146 19.844H10.488V26.468H16.146C17.94 26.468 19.458 24.95 19.458 23.156C19.458 21.316 17.94 19.844 16.146 19.844ZM59.4953 10.874C59.6793 11.518 59.8633 12.208 60.0013 12.852C60.2773 14.186 60.3693 15.52 60.3693 16.946C60.3693 18.326 60.2773 19.706 60.0013 20.994C59.8633 21.638 59.6793 22.328 59.4953 22.972L59.3573 23.432C57.1033 29.872 51.5372 33.506 44.0393 33.506C37.7373 33.506 31.9412 29.78 29.2732 23.984L29.0892 23.524C28.1692 21.454 27.7552 19.2 27.7552 16.946C27.7552 14.646 28.1692 12.438 29.0892 10.322L29.2732 9.862C31.9412 4.066 37.7373 0.339998 44.0393 0.339998C51.5372 0.339998 57.1033 4.02 59.3573 10.414L59.4953 10.874ZM52.8713 20.902C53.3313 19.706 53.5153 18.372 53.5153 16.946C53.5153 15.474 53.3313 14.14 52.8713 12.944C51.5833 9.172 48.5013 7.102 44.2693 7.102C39.1633 7.102 34.9773 11.518 34.9773 16.946C34.9773 22.328 39.1633 26.744 44.2693 26.744C48.5013 26.744 51.5833 24.674 52.8713 20.902ZM76.7625 32.954L71.8865 24.214L67.0105 32.954C67.0105 33 66.9645 33.046 66.9185 33.046H59.0985C59.0525 33.046 59.0065 33 59.0065 32.954C58.9605 32.908 58.9605 32.862 59.0065 32.862L67.8385 16.946L59.0065 1.03C59.0065 0.983998 59.0065 0.983998 59.0065 0.983998C58.9605 0.937999 59.0065 0.937999 59.0065 0.891999V0.845997C59.0525 0.845997 59.0525 0.845997 59.0525 0.845997H59.0985H66.9185C66.9645 0.845997 67.0105 0.845997 67.0105 0.891999L71.8865 9.632L76.7625 0.891999C76.7625 0.845997 76.8085 0.845997 76.8545 0.845997H84.6745C84.7205 0.845997 84.7205 0.845997 84.7665 0.891999C84.7665 0.937999 84.7665 0.983998 84.7665 1.03L75.9345 16.946L84.7665 32.862C84.7665 32.862 84.7665 32.908 84.7665 32.954C84.7205 33 84.7205 33.046 84.6745 33.046H76.8545C76.8085 33.046 76.7625 33 76.7625 32.954Z" fill="#C28F2C"/>
<path d="M100.204 13.899C100.288 14.193 100.372 14.508 100.435 14.802C100.561 15.411 100.603 16.02 100.603 16.671C100.603 17.301 100.561 17.931 100.435 18.519C100.372 18.813 100.288 19.128 100.204 19.422L100.141 19.632C99.112 22.572 96.571 24.231 93.148 24.231C90.271 24.231 87.625 22.53 86.407 19.884L86.323 19.674C85.903 18.729 85.714 17.7 85.714 16.671C85.714 15.621 85.903 14.613 86.323 13.647L86.407 13.437C87.625 10.791 90.271 9.09 93.148 9.09C96.571 9.09 99.112 10.77 100.141 13.689L100.204 13.899ZM97.18 18.477C97.39 17.931 97.474 17.322 97.474 16.671C97.474 15.999 97.39 15.39 97.18 14.844C96.592 13.122 95.185 12.177 93.253 12.177C90.922 12.177 89.011 14.193 89.011 16.671C89.011 19.128 90.922 21.144 93.253 21.144C95.185 21.144 96.592 20.199 97.18 18.477ZM110.562 9.321C110.604 9.321 110.625 9.342 110.625 9.363V12.261C110.625 12.282 110.604 12.324 110.562 12.324H105.06V15.075H110.142C110.142 15.075 110.163 15.096 110.184 15.096C110.184 15.117 110.184 15.138 110.184 15.159L109.386 17.952C109.386 17.973 109.365 17.994 109.344 17.994H105.06V23.958C105.06 23.979 105.039 24.021 105.018 24.021H101.952C101.931 24.021 101.91 23.979 101.91 23.958V9.363V9.342C101.91 9.342 101.91 9.342 101.91 9.321C101.931 9.321 101.931 9.321 101.931 9.321C101.952 9.321 101.952 9.321 101.952 9.321H110.562Z" fill="#C28F2C"/>
<rect x="212" width="3" height="75" fill="black"/>
<path d="M249.415 21.52C249.455 21.52 249.475 21.54 249.475 21.56V35.46C249.475 35.48 249.455 35.52 249.415 35.52H246.495H246.335C246.315 35.52 246.295 35.5 246.295 35.48L240.015 26.8V35.46C240.015 35.48 239.995 35.52 239.955 35.52H237.015C236.975 35.52 236.955 35.48 236.955 35.46V22.9L236.255 21.58C236.235 21.58 236.235 21.56 236.255 21.54C236.255 21.52 236.275 21.52 236.295 21.52H239.955C239.975 21.52 239.975 21.52 239.975 21.52C239.995 21.52 239.995 21.52 239.995 21.54L246.455 30.46V21.56C246.455 21.54 246.475 21.52 246.495 21.52H249.415ZM264.468 25.88C264.548 26.16 264.628 26.46 264.688 26.74C264.808 27.32 264.848 27.9 264.848 28.52C264.848 29.12 264.808 29.72 264.688 30.28C264.628 30.56 264.548 30.86 264.468 31.14L264.408 31.34C263.428 34.14 261.008 35.72 257.748 35.72C255.008 35.72 252.488 34.1 251.328 31.58L251.248 31.38C250.848 30.48 250.668 29.5 250.668 28.52C250.668 27.52 250.848 26.56 251.248 25.64L251.328 25.44C252.488 22.92 255.008 21.3 257.748 21.3C261.008 21.3 263.428 22.9 264.408 25.68L264.468 25.88ZM261.588 30.24C261.788 29.72 261.868 29.14 261.868 28.52C261.868 27.88 261.788 27.3 261.588 26.78C261.028 25.14 259.688 24.24 257.848 24.24C255.628 24.24 253.808 26.16 253.808 28.52C253.808 30.86 255.628 32.78 257.848 32.78C259.688 32.78 261.028 31.88 261.588 30.24ZM268.649 35.46V24.38H265.149C265.129 24.38 265.109 24.36 265.089 24.34L264.329 21.58C264.309 21.56 264.329 21.54 264.329 21.54C264.349 21.52 264.349 21.52 264.369 21.52H275.929C275.949 21.52 275.969 21.52 275.969 21.54C275.989 21.54 275.989 21.56 275.989 21.58L275.209 24.34C275.209 24.36 275.189 24.38 275.169 24.38H271.669V35.46C271.669 35.48 271.649 35.5 271.609 35.5H268.689C268.689 35.5 268.689 35.5 268.669 35.5C268.649 35.5 268.649 35.48 268.649 35.48V35.46ZM291.074 28.26C291.374 28.52 291.634 28.8 291.854 29.1C292.334 29.78 292.594 30.58 292.594 31.36C292.594 31.46 292.594 31.56 292.594 31.68L292.554 31.9C292.354 33.26 291.414 34.42 290.074 35.1C289.274 35.5 288.354 35.72 287.354 35.72C284.814 35.72 282.634 34.2 282.214 32.1C282.194 32.08 282.214 32.06 282.234 32.06L282.914 31.68L283.154 31.56L284.654 30.76C284.674 30.74 284.674 30.74 284.694 30.76C284.714 30.76 284.714 30.78 284.734 30.78C284.994 32.02 286.154 32.92 287.494 32.92C288.614 32.92 289.514 32.26 289.514 31.46C289.514 31.02 289.214 30.58 288.714 30.3C288.354 30.1 287.994 30.04 287.634 30.02C287.514 30 287.394 30 287.274 29.98C286.834 29.94 286.354 29.9 285.914 29.78C285.374 29.62 284.854 29.4 284.394 29.1C283.374 28.42 282.654 27.4 282.454 26.3L282.414 26.08C282.414 26.02 282.414 25.96 282.394 25.88C282.394 25.8 282.394 25.7 282.394 25.6C282.394 23.2 284.654 21.24 287.434 21.24C289.654 21.24 291.654 22.54 292.274 24.4C292.274 24.42 292.254 24.44 292.234 24.46L291.534 24.76L291.314 24.86L289.594 25.6C289.574 25.62 289.554 25.62 289.534 25.6C289.534 25.6 289.514 25.58 289.514 25.56C289.514 24.78 288.614 24.14 287.494 24.14C286.374 24.14 285.474 24.78 285.474 25.56C285.474 26.24 286.054 26.68 286.574 26.86C286.974 26.98 287.414 27.02 287.834 27.04C288.214 27.08 288.614 27.1 288.994 27.2C289.774 27.42 290.494 27.78 291.074 28.26ZM299.529 21.5C301.809 21.5 303.669 23.36 303.669 25.64C303.669 27.92 301.809 29.78 299.529 29.78H297.069V35.46C297.069 35.48 297.049 35.5 297.009 35.5H294.069C294.029 35.5 294.009 35.48 294.009 35.46V22.9L293.309 21.58C293.289 21.58 293.289 21.56 293.309 21.54C293.309 21.52 293.329 21.52 293.349 21.52H296.589C296.609 21.5 296.609 21.5 296.629 21.5H299.529ZM297.069 24.38V27H299.529C300.249 27 300.849 26.42 300.849 25.68C300.849 24.96 300.249 24.38 299.529 24.38H297.069ZM317.889 25.88C317.969 26.16 318.049 26.46 318.109 26.74C318.229 27.32 318.269 27.9 318.269 28.52C318.269 29.12 318.229 29.72 318.109 30.28C318.049 30.56 317.969 30.86 317.889 31.14L317.829 31.34C316.849 34.14 314.429 35.72 311.169 35.72C308.429 35.72 305.909 34.1 304.749 31.58L304.669 31.38C304.269 30.48 304.089 29.5 304.089 28.52C304.089 27.52 304.269 26.56 304.669 25.64L304.749 25.44C305.909 22.92 308.429 21.3 311.169 21.3C314.429 21.3 316.849 22.9 317.829 25.68L317.889 25.88ZM315.009 30.24C315.209 29.72 315.289 29.14 315.289 28.52C315.289 27.88 315.209 27.3 315.009 26.78C314.449 25.14 313.109 24.24 311.269 24.24C309.049 24.24 307.229 26.16 307.229 28.52C307.229 30.86 309.049 32.78 311.269 32.78C313.109 32.78 314.449 31.88 315.009 30.24ZM332.154 21.52C332.194 21.52 332.214 21.54 332.214 21.56V35.46C332.214 35.48 332.194 35.52 332.154 35.52H329.234H329.074C329.054 35.52 329.034 35.5 329.034 35.48L322.754 26.8V35.46C322.754 35.48 322.734 35.52 322.694 35.52H319.754C319.714 35.52 319.694 35.48 319.694 35.46V22.9L318.994 21.58C318.974 21.58 318.974 21.56 318.994 21.54C318.994 21.52 319.014 21.52 319.034 21.52H322.694C322.714 21.52 322.714 21.52 322.714 21.52C322.734 21.52 322.734 21.52 322.734 21.54L329.194 30.46V21.56C329.194 21.54 329.214 21.52 329.234 21.52H332.154ZM342.307 28.26C342.607 28.52 342.867 28.8 343.087 29.1C343.567 29.78 343.827 30.58 343.827 31.36C343.827 31.46 343.827 31.56 343.827 31.68L343.787 31.9C343.587 33.26 342.647 34.42 341.307 35.1C340.507 35.5 339.587 35.72 338.587 35.72C336.047 35.72 333.867 34.2 333.447 32.1C333.427 32.08 333.447 32.06 333.467 32.06L334.147 31.68L334.387 31.56L335.887 30.76C335.907 30.74 335.907 30.74 335.927 30.76C335.947 30.76 335.947 30.78 335.967 30.78C336.227 32.02 337.387 32.92 338.727 32.92C339.847 32.92 340.747 32.26 340.747 31.46C340.747 31.02 340.447 30.58 339.947 30.3C339.587 30.1 339.227 30.04 338.867 30.02C338.747 30 338.627 30 338.507 29.98C338.067 29.94 337.587 29.9 337.147 29.78C336.607 29.62 336.087 29.4 335.627 29.1C334.607 28.42 333.887 27.4 333.687 26.3L333.647 26.08C333.647 26.02 333.647 25.96 333.627 25.88C333.627 25.8 333.627 25.7 333.627 25.6C333.627 23.2 335.887 21.24 338.667 21.24C340.887 21.24 342.887 22.54 343.507 24.4C343.507 24.42 343.487 24.44 343.467 24.46L342.767 24.76L342.547 24.86L340.827 25.6C340.807 25.62 340.787 25.62 340.767 25.6C340.767 25.6 340.747 25.58 340.747 25.56C340.747 24.78 339.847 24.14 338.727 24.14C337.607 24.14 336.707 24.78 336.707 25.56C336.707 26.24 337.287 26.68 337.807 26.86C338.207 26.98 338.647 27.02 339.067 27.04C339.447 27.08 339.847 27.1 340.227 27.2C341.007 27.42 341.727 27.78 342.307 28.26ZM358.263 25.88C358.343 26.16 358.423 26.46 358.483 26.74C358.603 27.32 358.643 27.9 358.643 28.52C358.643 29.12 358.603 29.72 358.483 30.28C358.423 30.56 358.343 30.86 358.263 31.14L358.203 31.34C357.223 34.14 354.803 35.72 351.543 35.72C348.803 35.72 346.283 34.1 345.123 31.58L345.043 31.38C344.643 30.48 344.463 29.5 344.463 28.52C344.463 27.52 344.643 26.56 345.043 25.64L345.123 25.44C346.283 22.92 348.803 21.3 351.543 21.3C354.803 21.3 357.223 22.9 358.203 25.68L358.263 25.88ZM355.383 30.24C355.583 29.72 355.663 29.14 355.663 28.52C355.663 27.88 355.583 27.3 355.383 26.78C354.823 25.14 353.483 24.24 351.643 24.24C349.423 24.24 347.603 26.16 347.603 28.52C347.603 30.86 349.423 32.78 351.643 32.78C353.483 32.78 354.823 31.88 355.383 30.24ZM367.428 29.34L370.808 35.44C370.828 35.44 370.828 35.46 370.808 35.48C370.808 35.5 370.788 35.52 370.768 35.52H367.388C367.368 35.52 367.348 35.5 367.328 35.48L364.168 29.78H363.128V35.46C363.128 35.48 363.108 35.5 363.068 35.5H360.128C360.088 35.5 360.068 35.48 360.068 35.46V22.9L359.368 21.58C359.348 21.58 359.348 21.56 359.368 21.54C359.368 21.52 359.388 21.52 359.408 21.52H362.648C362.668 21.5 362.668 21.5 362.688 21.5H365.588C367.868 21.5 369.728 23.36 369.728 25.64C369.728 27.06 369.008 28.38 367.808 29.14C367.688 29.22 367.568 29.28 367.428 29.34ZM366.428 26.7C366.728 26.44 366.908 26.08 366.908 25.68C366.908 24.96 366.308 24.38 365.588 24.38H363.128V27H365.588C365.888 27 366.188 26.9 366.428 26.7ZM379.984 21.52C380.024 21.52 380.044 21.54 380.044 21.56V24.32C380.044 24.34 380.024 24.38 379.984 24.38H374.744V27H379.584C379.584 27 379.604 27.02 379.624 27.02C379.624 27.04 379.624 27.06 379.624 27.08L378.864 29.74C378.864 29.76 378.844 29.78 378.824 29.78H374.744V32.66H379.984C380.024 32.66 380.044 32.68 380.044 32.7V35.46C380.044 35.48 380.024 35.52 379.984 35.52H371.784C371.764 35.52 371.744 35.48 371.744 35.46V21.56V21.54C371.744 21.54 371.744 21.54 371.744 21.52C371.764 21.52 371.764 21.52 371.764 21.52C371.784 21.52 371.784 21.52 371.784 21.52H379.984ZM386.271 21.52C390.131 21.52 393.271 24.66 393.271 28.52C393.271 32.38 390.131 35.52 386.271 35.52H381.531C381.511 35.52 381.491 35.48 381.491 35.46V21.56V21.54C381.491 21.54 381.491 21.54 381.491 21.52C381.511 21.52 381.511 21.52 381.511 21.52C381.531 21.52 381.531 21.52 381.531 21.52H386.271ZM386.271 32.46C388.451 32.46 390.231 30.68 390.231 28.52C390.231 26.34 388.451 24.56 386.271 24.56H384.491V32.46H386.271ZM312.359 37.54L317.799 51.44C317.799 51.46 317.799 51.48 317.799 51.48C317.779 51.5 317.759 51.5 317.739 51.5H314.699C314.679 51.5 314.659 51.5 314.639 51.48L313.579 48.76H308.199L307.139 51.48C307.139 51.5 307.119 51.52 307.099 51.52H304.039C304.019 51.52 303.999 51.5 303.999 51.48C303.979 51.48 303.979 51.46 303.999 51.44L308.819 39.14L307.979 37.58C307.959 37.58 307.959 37.56 307.979 37.54C307.979 37.52 307.999 37.52 308.019 37.52H309.259H312.299C312.319 37.52 312.339 37.52 312.359 37.54ZM310.899 41.9L309.279 46.02H312.519L310.899 41.9ZM320.038 51.46V40.38H316.538C316.518 40.38 316.498 40.36 316.478 40.34L315.718 37.58C315.698 37.56 315.718 37.54 315.718 37.54C315.738 37.52 315.738 37.52 315.758 37.52H327.318C327.338 37.52 327.358 37.52 327.358 37.54C327.378 37.54 327.378 37.56 327.378 37.58L326.598 40.34C326.598 40.36 326.578 40.38 326.558 40.38H323.058V51.46C323.058 51.48 323.038 51.5 322.998 51.5H320.078C320.078 51.5 320.078 51.5 320.058 51.5C320.038 51.5 320.038 51.48 320.038 51.48V51.46ZM341.483 37.54L346.923 51.44C346.923 51.46 346.923 51.48 346.923 51.48C346.903 51.5 346.883 51.5 346.863 51.5H343.823C343.803 51.5 343.783 51.5 343.763 51.48L342.703 48.76H337.323L336.263 51.48C336.263 51.5 336.243 51.52 336.223 51.52H333.163C333.143 51.52 333.123 51.5 333.123 51.48C333.103 51.48 333.103 51.46 333.123 51.44L337.943 39.14L337.103 37.58C337.083 37.58 337.083 37.56 337.103 37.54C337.103 37.52 337.123 37.52 337.143 37.52H338.383H341.423C341.443 37.52 341.463 37.52 341.483 37.54ZM340.023 41.9L338.403 46.02H341.643L340.023 41.9ZM356.459 48.66C356.479 48.66 356.499 48.66 356.499 48.68C356.519 48.68 356.519 48.7 356.499 48.72L355.739 51.48C355.719 51.5 355.699 51.52 355.679 51.52H347.239C347.219 51.52 347.199 51.5 347.199 51.48C347.179 51.46 347.179 51.44 347.199 51.44L347.899 50.14V38.9L347.199 37.58C347.179 37.58 347.179 37.56 347.199 37.54C347.199 37.52 347.219 37.52 347.239 37.52H350.899C350.939 37.52 350.959 37.54 350.959 37.56V48.66H356.459ZM366.05 48.66C366.07 48.66 366.09 48.66 366.09 48.68C366.11 48.68 366.11 48.7 366.09 48.72L365.33 51.48C365.31 51.5 365.29 51.52 365.27 51.52H356.83C356.81 51.52 356.79 51.5 356.79 51.48C356.77 51.46 356.77 51.44 356.79 51.44L357.49 50.14V38.9L356.79 37.58C356.77 37.58 356.77 37.56 356.79 37.54C356.79 37.52 356.81 37.52 356.83 37.52H360.49C360.53 37.52 360.55 37.54 360.55 37.56V48.66H366.05ZM382.796 41.64C382.796 42.68 382.396 43.64 381.756 44.36C382.476 45.12 382.896 46.14 382.896 47.26C382.896 49.6 380.996 51.52 378.656 51.52H372.476C372.456 51.52 372.436 51.5 372.436 51.48C372.416 51.46 372.416 51.44 372.436 51.44L373.136 50.14V38.9L372.436 37.58C372.416 37.58 372.416 37.56 372.436 37.54C372.436 37.52 372.456 37.52 372.476 37.52H375.716C375.736 37.5 375.736 37.5 375.756 37.5H378.656C380.936 37.5 382.796 39.36 382.796 41.64ZM376.196 43H378.656C379.376 43 379.976 42.42 379.976 41.68C379.976 40.96 379.376 40.38 378.656 40.38H376.196V43ZM378.656 45.78H376.196V48.66H378.656C379.436 48.66 380.096 48 380.096 47.22C380.096 46.42 379.436 45.78 378.656 45.78ZM382.617 37.58C382.597 37.56 382.597 37.56 382.617 37.54V37.52H382.637H382.657H386.057C386.077 37.52 386.097 37.52 386.097 37.54L388.217 41.34L390.337 37.54C390.337 37.52 390.357 37.52 390.377 37.52H393.777C393.797 37.52 393.797 37.52 393.817 37.54C393.817 37.56 393.817 37.58 393.817 37.6L389.957 44.54L389.737 44.96V51.46C389.737 51.48 389.697 51.52 389.677 51.52H386.757C386.717 51.52 386.697 51.48 386.697 51.46V44.96L382.617 37.6C382.617 37.58 382.617 37.58 382.617 37.58Z" fill="black"/>
<path d="M437.77 17.5798L414 28.6698L419.923 51.3773L424.43 50.8197L423.191 36.5419L424.671 35.8777L427.227 50.473L434.93 49.5203L433.561 33.7609L435.027 33.104L437.838 49.1613L445.63 48.1963L444.131 30.922L445.613 30.2577L448.686 47.8183L456.39 46.8652V22.2787L437.77 17.5798ZM438.329 52.0199L438.721 54.255L456.39 57.2228V49.7845L438.338 52.0196L438.329 52.0199ZM473.102 47.3599V50.422H476.848C476.849 51.0431 476.69 51.6537 476.387 52.1944C476.07 52.7331 475.6 53.1644 475.039 53.4334C474.368 53.7423 473.635 53.8916 472.897 53.8696C472.045 53.8934 471.206 53.6569 470.49 53.1911C469.791 52.7022 469.252 52.0153 468.94 51.2174C468.552 50.2197 468.367 49.1538 468.394 48.0826C468.366 47.0196 468.556 45.9622 468.953 44.9768C469.277 44.1914 469.82 43.5177 470.517 43.0371C471.219 42.5777 472.043 42.3428 472.88 42.3631C473.316 42.3593 473.75 42.4173 474.17 42.5353C474.544 42.6431 474.896 42.8144 475.212 43.0419C475.512 43.2598 475.772 43.53 475.977 43.8396C476.193 44.1709 476.355 44.5341 476.459 44.9161H480.615C480.506 44.0374 480.223 43.1897 479.782 42.4236C479.344 41.6678 478.768 41.0017 478.086 40.4599C477.37 39.8965 476.563 39.4625 475.701 39.1773C474.764 38.87 473.784 38.7177 472.798 38.7263C471.646 38.7166 470.502 38.9306 469.429 39.3566C468.399 39.77 467.467 40.3989 466.695 41.2017C465.888 42.05 465.264 43.0581 464.864 44.162C464.406 45.4395 464.184 46.7901 464.207 48.1479C464.207 50.0779 464.571 51.7419 465.299 53.1398C465.988 54.4865 467.049 55.6039 468.353 56.3573C469.675 57.0678 471.144 57.4563 472.642 57.4917C474.14 57.527 475.625 57.2082 476.979 56.5608C478.15 55.9623 479.125 55.0365 479.787 53.8941C480.469 52.7319 480.809 51.3418 480.808 49.7238V47.3576L473.102 47.3599ZM524.851 57.2544V38.964H537.286V42.3483H528.954V46.4117H535.69V49.7962H528.954V53.8696H537.305V57.2542L524.851 57.2544ZM549.358 44.3317C549.339 44.0173 549.254 43.7106 549.107 43.4327C548.96 43.1548 548.755 42.9123 548.506 42.7218C548.003 42.3363 547.302 42.1448 546.414 42.1448C545.901 42.1275 545.39 42.2097 544.908 42.3871C544.544 42.5207 544.225 42.7543 543.986 43.0613C543.779 43.3418 543.667 43.6818 543.666 44.0312C543.655 44.3097 543.72 44.5858 543.856 44.8289C543.999 45.0704 544.197 45.274 544.434 45.4227C544.711 45.6042 545.01 45.75 545.324 45.8569C545.69 45.9852 546.063 46.0912 546.441 46.1745L548.036 46.5479C548.818 46.7155 549.581 46.9657 550.311 47.2946C550.944 47.5789 551.528 47.9618 552.043 48.4292C552.515 48.8618 552.89 49.3897 553.146 49.9784C553.413 50.6137 553.545 51.2984 553.533 51.9883C553.56 53.0326 553.262 54.0592 552.681 54.9244C552.067 55.7836 551.218 56.4448 550.238 56.8277C549.017 57.3029 547.714 57.5303 546.405 57.4968C545.076 57.5253 543.754 57.2939 542.513 56.8154C541.468 56.4064 540.569 55.6901 539.933 54.7596C539.319 53.8447 538.998 52.7036 538.971 51.3363H542.925C542.93 51.8643 543.095 52.3782 543.398 52.8089C543.702 53.2397 544.128 53.5667 544.621 53.7461C545.178 53.959 545.769 54.0626 546.364 54.0515C546.91 54.0635 547.453 53.9739 547.967 53.7872C548.372 53.643 548.732 53.392 549.009 53.0602C549.252 52.7514 549.386 52.3686 549.386 51.974C549.39 51.6201 549.269 51.2763 549.045 51.0039C548.77 50.7017 548.429 50.4684 548.048 50.3225C547.511 50.102 546.957 49.9284 546.39 49.8036L544.448 49.331C542.9 48.9592 541.678 48.3725 540.783 47.5708C539.888 46.7692 539.443 45.683 539.45 44.3123C539.421 43.2606 539.736 42.2285 540.345 41.3739C540.982 40.5048 541.841 39.8254 542.831 39.4076C543.972 38.9201 545.202 38.6797 546.441 38.702C547.674 38.6742 548.899 38.9149 550.031 39.4076C550.993 39.8292 551.819 40.5127 552.416 41.3813C552.99 42.2514 553.292 43.275 553.283 44.3197L549.358 44.3317ZM521.925 57.2544H517.865V43.3498L517.448 43.345L513.347 57.2544H509.29L505.3 43.345L504.782 43.3498V57.2544H500.722V38.964H507.622L511.107 51.2223H511.528L515.013 38.964H521.925V57.2544ZM494.33 57.2544H498.727L492.631 38.9663H487.06L480.954 57.2544H485.358L486.545 53.2441H493.144L494.33 57.2544ZM487.488 50.0537L489.466 43.3498H490.213L492.2 50.0537H487.488ZM554.532 40.8986C554.343 40.898 554.159 40.8417 554.002 40.7365C553.845 40.6313 553.722 40.482 553.648 40.3071C553.599 40.1881 553.573 40.0604 553.573 39.9313C553.573 39.8023 553.599 39.6745 553.648 39.5556C553.696 39.4407 553.766 39.3361 553.853 39.2477C553.941 39.16 554.045 39.0893 554.159 39.039C554.398 38.9419 554.665 38.9419 554.905 39.039C555.019 39.0887 555.122 39.1595 555.21 39.2477C555.298 39.3362 555.368 39.4407 555.417 39.5556C555.467 39.6745 555.493 39.8023 555.493 39.9313C555.493 40.0604 555.467 40.1881 555.417 40.3071C555.368 40.422 555.298 40.5264 555.21 40.615C555.123 40.7037 555.019 40.7746 554.905 40.8237C554.787 40.8734 554.66 40.8989 554.532 40.8986ZM554.532 40.6344C554.656 40.6359 554.778 40.6033 554.886 40.54C554.989 40.4817 555.075 40.3984 555.138 40.2977C555.2 40.1899 555.232 40.0678 555.232 39.9436C555.232 39.8193 555.2 39.6972 555.138 39.5895C555.074 39.4888 554.987 39.4056 554.883 39.3472C554.776 39.2853 554.655 39.2527 554.532 39.2527C554.408 39.2527 554.287 39.2853 554.18 39.3472C554.082 39.4075 554 39.4906 553.94 39.5895C553.877 39.6966 553.843 39.8189 553.843 39.9434C553.843 40.068 553.877 40.1903 553.94 40.2974C554 40.3963 554.082 40.4794 554.18 40.5397C554.287 40.6028 554.408 40.6355 554.532 40.6344ZM554.18 40.3555V39.4661H554.609C554.666 39.4648 554.723 39.4772 554.775 39.5023C554.822 39.5247 554.861 39.56 554.888 39.604C554.916 39.6525 554.93 39.7079 554.929 39.764C554.931 39.8205 554.916 39.8762 554.886 39.9239C554.859 39.9689 554.818 40.0039 554.77 40.0237C554.717 40.0479 554.66 40.0594 554.601 40.0573H554.313V39.8829H554.553C554.585 39.8845 554.616 39.8741 554.64 39.8538C554.651 39.8419 554.66 39.8279 554.666 39.8124C554.672 39.797 554.675 39.7805 554.674 39.764C554.675 39.7474 554.673 39.7308 554.667 39.7153C554.661 39.6998 554.652 39.6858 554.64 39.6742C554.616 39.6538 554.585 39.6435 554.553 39.6451H554.421V40.3555H554.18ZM554.756 39.9481L554.953 40.3558H554.686L554.505 39.9481H554.756ZM481.965 17.7495H486.068V36.0399H481.965V17.7495ZM505.555 26.8948C505.555 28.9022 505.177 30.5994 504.421 31.9865C503.719 33.3253 502.651 34.4334 501.343 35.1795C499.998 35.9022 498.498 36.2802 496.974 36.2802C495.45 36.2802 493.949 35.9022 492.605 35.1795C491.297 34.4305 490.229 33.32 489.527 31.9791C488.771 30.5793 488.393 28.8821 488.393 26.8874C488.393 24.8929 488.771 23.1918 489.527 21.784C490.227 20.4491 491.292 19.3438 492.595 18.5982C493.94 17.8771 495.441 17.5 496.964 17.5C498.488 17.5 499.989 17.8771 501.334 18.5982C502.642 19.3443 503.71 20.4524 504.412 21.7912C505.167 23.1877 505.545 24.8889 505.545 26.8948M501.37 26.8948C501.401 25.8186 501.218 24.747 500.833 23.7429C500.528 22.9581 499.998 22.2828 499.31 21.8034C498.606 21.3675 497.796 21.1368 496.969 21.1368C496.143 21.1368 495.333 21.3675 494.629 21.8034C493.94 22.2832 493.408 22.9582 493.101 23.7429C492.377 25.7809 492.377 28.0087 493.101 30.0467C493.407 30.832 493.939 31.5073 494.629 31.9862C495.333 32.4221 496.143 32.6529 496.969 32.6529C497.795 32.6529 498.606 32.4221 499.31 31.9862C499.998 31.5076 500.529 30.8321 500.833 30.0467C501.218 29.0425 501.401 27.971 501.37 26.8948ZM473.342 29.6636L475.45 36.0399H479.953L477.609 29.1715H474.426L474.235 28.5797C474.842 28.4611 475.879 28.2766 476.798 27.6463C477.442 27.205 477.97 26.6129 478.337 25.9208C478.704 25.2287 478.899 24.4573 478.904 23.6727C478.932 22.589 478.66 21.5189 478.12 20.5815C477.591 19.6738 476.807 18.9447 475.867 18.4867C474.765 17.9723 473.558 17.7232 472.344 17.7592H465.02V36.0399H469.126V29.6636H473.342ZM473.265 25.879C472.706 26.086 472.113 26.1831 471.518 26.165H469.126V21.1075H471.511C472.106 21.0903 472.699 21.1925 473.255 21.4083C473.695 21.5844 474.067 21.899 474.314 22.3052C474.567 22.7147 474.693 23.1909 474.675 23.6727C474.695 24.1473 474.571 24.6166 474.319 25.0184C474.07 25.4132 473.7 25.7154 473.265 25.879ZM505.942 17.7495V21.144H512.993L513.186 21.7378C512.589 21.8542 511.581 22.0338 510.676 22.635V36.0447H514.736V21.1343H519.458V17.7395L505.942 17.7495Z" fill="black"/>
</svg>
