<svg width="293" height="40" viewBox="0 0 293 40" fill="none" xmlns="http://www.w3.org/2000/svg">
<g clip-path="url(#clip0_1_18)">
<path d="M12.1932 34.3829C12.2175 34.3829 12.2417 34.3829 12.2417 34.4075C12.266 34.4075 12.266 34.432 12.2417 34.4565L11.3206 37.8421C11.2963 37.8667 11.2721 37.8912 11.2478 37.8912H1.01812C0.993884 37.8912 0.969643 37.8667 0.969643 37.8421C0.945402 37.8176 0.945402 37.7931 0.969643 37.7931L1.81808 36.1984V22.4107L0.969643 20.7915C0.945402 20.7915 0.945402 20.7669 0.969643 20.7424C0.969643 20.7179 0.993884 20.7179 1.01812 20.7179H5.45423C5.50271 20.7179 5.52695 20.7424 5.52695 20.7669V34.3829H12.1932ZM23.163 20.7179C23.2115 20.7179 23.2357 20.7424 23.2357 20.7669V24.1525C23.2357 24.1771 23.2115 24.2261 23.163 24.2261H16.8119V27.44H22.6782C22.6782 27.44 22.7024 27.4645 22.7267 27.4645C22.7267 27.4891 22.7267 27.5136 22.7267 27.5381L21.8055 30.8011C21.8055 30.8256 21.7813 30.8501 21.757 30.8501H16.8119V34.3829H23.163C23.2115 34.3829 23.2357 34.4075 23.2357 34.432V37.8176C23.2357 37.8421 23.2115 37.8912 23.163 37.8912H13.2242C13.2 37.8912 13.1757 37.8421 13.1757 37.8176V20.7669V20.7424C13.1757 20.7424 13.1757 20.7424 13.1757 20.7179C13.2 20.7179 13.2 20.7179 13.2 20.7179C13.2242 20.7179 13.2242 20.7179 13.2242 20.7179H23.163ZM41.3522 28.2741C41.4006 28.2741 41.4249 28.2987 41.4249 28.3232C41.4491 28.6421 41.4491 28.9611 41.4491 29.3045C41.4491 29.4763 41.4491 29.6725 41.4491 29.8443C41.4249 30.4085 41.3522 30.9483 41.2552 31.4635C41.1825 31.8069 41.0855 32.1749 40.9885 32.5184L40.9158 32.7637C39.728 36.1984 36.7948 38.1365 32.8436 38.1365C29.5225 38.1365 26.4681 36.1493 25.0621 33.0581L24.9652 32.8128C24.4804 31.7088 24.2622 30.5067 24.2622 29.3045C24.2622 24.4224 28.1165 20.448 32.8436 20.448C36.6979 20.448 39.3886 21.9936 40.6492 24.9376C40.6734 24.9867 40.6492 25.0112 40.6249 25.0357L37.4251 26.6059C37.4009 26.6304 37.3766 26.6304 37.3766 26.6059C37.3523 26.6059 37.3523 26.6059 37.3281 26.5813C36.6009 24.9376 35.098 24.0544 32.9648 24.0544C30.274 24.0544 28.0681 26.4096 28.0681 29.3045C28.0681 32.1749 30.274 34.5301 32.9648 34.5301C35.1707 34.5301 36.7706 33.4507 37.4736 31.5125H31.6073C31.583 31.5125 31.5588 31.488 31.5588 31.488C31.5345 31.4635 31.5345 31.4389 31.5588 31.4144L33.0617 28.2987C33.0617 28.2741 33.086 28.2741 33.1102 28.2741H41.3522ZM52.8744 20.7179C52.9229 20.7179 52.9471 20.7424 52.9471 20.7669V24.1525C52.9471 24.1771 52.9229 24.2261 52.8744 24.2261H46.5232V27.44H52.3896C52.3896 27.44 52.4138 27.4645 52.438 27.4645C52.438 27.4891 52.438 27.5136 52.438 27.5381L51.5169 30.8011C51.5169 30.8256 51.4926 30.8501 51.4684 30.8501H46.5232V34.3829H52.8744C52.9229 34.3829 52.9471 34.4075 52.9471 34.432V37.8176C52.9471 37.8421 52.9229 37.8912 52.8744 37.8912H42.9356C42.9113 37.8912 42.8871 37.8421 42.8871 37.8176V20.7669V20.7424C42.8871 20.7424 42.8871 20.7424 42.8871 20.7179C42.9113 20.7179 42.9113 20.7179 42.9113 20.7179C42.9356 20.7179 42.9356 20.7179 42.9356 20.7179H52.8744ZM70.0212 20.7179C70.0697 20.7179 70.0939 20.7424 70.0939 20.7669V37.8176C70.0939 37.8421 70.0697 37.8912 70.0212 37.8912H66.482H66.2881C66.2638 37.8912 66.2396 37.8667 66.2396 37.8421L58.6279 27.1947V37.8176C58.6279 37.8421 58.6037 37.8912 58.5552 37.8912H54.9918C54.9433 37.8912 54.9191 37.8421 54.9191 37.8176V22.4107L54.0706 20.7915C54.0464 20.7915 54.0464 20.7669 54.0706 20.7424C54.0706 20.7179 54.0949 20.7179 54.1191 20.7179H58.5552C58.5794 20.7179 58.5795 20.7179 58.5795 20.7179C58.6037 20.7179 58.6037 20.7179 58.6037 20.7424L66.4335 31.6843V20.7669C66.4335 20.7424 66.4578 20.7179 66.482 20.7179H70.0212ZM78.0608 20.7179C82.7393 20.7179 86.5452 24.5696 86.5452 29.3045C86.5452 34.0395 82.7393 37.8912 78.0608 37.8912H72.3157C72.2914 37.8912 72.2672 37.8421 72.2672 37.8176V20.7669V20.7424C72.2672 20.7424 72.2672 20.7424 72.2672 20.7179C72.2914 20.7179 72.2914 20.7179 72.2914 20.7179C72.3157 20.7179 72.3157 20.7179 72.3157 20.7179H78.0608ZM78.0608 34.1376C80.7031 34.1376 82.8605 31.9541 82.8605 29.3045C82.8605 26.6304 80.7031 24.4469 78.0608 24.4469H75.9033V34.1376H78.0608ZM98.0702 28.9856C98.4338 29.3045 98.7489 29.648 99.0156 30.016C99.5974 30.8501 99.9125 31.8315 99.9125 32.7883C99.9125 32.9109 99.9125 33.0336 99.9125 33.1808L99.864 33.4507C99.6216 35.1189 98.4823 36.5419 96.8581 37.376C95.8885 37.8667 94.7734 38.1365 93.5613 38.1365C90.4827 38.1365 87.8405 36.272 87.3314 33.696C87.3072 33.6715 87.3314 33.6469 87.3556 33.6469L88.1798 33.1808L88.4707 33.0336L90.2888 32.0523C90.313 32.0277 90.313 32.0277 90.3373 32.0523C90.3615 32.0523 90.3615 32.0768 90.3858 32.0768C90.7009 33.5979 92.1069 34.7019 93.731 34.7019C95.0885 34.7019 96.1794 33.8923 96.1794 32.9109C96.1794 32.3712 95.8158 31.8315 95.2097 31.488C94.7734 31.2427 94.337 31.1691 93.9007 31.1445C93.7553 31.12 93.6098 31.12 93.4644 31.0955C92.9311 31.0464 92.3493 30.9973 91.816 30.8501C91.1615 30.6539 90.5312 30.384 89.9737 30.016C88.7374 29.1819 87.8647 27.9307 87.6223 26.5813L87.5738 26.3115C87.5738 26.2379 87.5738 26.1643 87.5496 26.0661C87.5496 25.968 87.5496 25.8453 87.5496 25.7227C87.5496 22.7787 90.2888 20.3744 93.6583 20.3744C96.3491 20.3744 98.7731 21.9691 99.5246 24.2507C99.5246 24.2752 99.5004 24.2997 99.4761 24.3243L98.6277 24.6923L98.3611 24.8149L96.2763 25.7227C96.2521 25.7472 96.2279 25.7472 96.2036 25.7227C96.2036 25.7227 96.1794 25.6981 96.1794 25.6736C96.1794 24.7168 95.0885 23.9317 93.731 23.9317C92.3735 23.9317 91.2827 24.7168 91.2827 25.6736C91.2827 26.5077 91.9857 27.0475 92.6159 27.2683C93.1008 27.4155 93.6341 27.4645 94.1431 27.4891C94.6037 27.5381 95.0885 27.5627 95.5491 27.6853C96.4945 27.9552 97.3672 28.3968 98.0702 28.9856Z" fill="#C28F2C"/>
<path d="M13.5265 5.50507C13.5265 6.7808 13.0417 7.9584 12.266 8.8416C13.1386 9.77387 13.6477 11.0251 13.6477 12.3989C13.6477 15.2693 11.3448 17.6245 8.5086 17.6245H1.01812C0.993884 17.6245 0.969643 17.6 0.969643 17.5755C0.945402 17.5509 0.945402 17.5264 0.969643 17.5264L1.81808 15.9317V2.144L0.969643 0.524802C0.945402 0.524802 0.945402 0.500269 0.969643 0.475736C0.969643 0.451202 0.993884 0.451202 1.01812 0.451202H4.94517C4.96941 0.426669 4.96941 0.426669 4.99365 0.426669H8.5086C11.2721 0.426669 13.5265 2.70827 13.5265 5.50507ZM5.52695 7.17334H8.5086C9.38127 7.17334 10.1085 6.46187 10.1085 5.55414C10.1085 4.67094 9.38127 3.95947 8.5086 3.95947H5.52695V7.17334ZM8.5086 10.5835H5.52695V14.1163H8.5086C9.454 14.1163 10.2539 13.3067 10.2539 12.3499C10.2539 11.3685 9.454 10.5835 8.5086 10.5835ZM31.3527 5.79947C31.4497 6.14294 31.5467 6.51094 31.6194 6.8544C31.7648 7.56587 31.8133 8.27734 31.8133 9.03787C31.8133 9.77387 31.7648 10.5099 31.6194 11.1968C31.5467 11.5403 31.4497 11.9083 31.3527 12.2517L31.28 12.4971C30.0922 15.9317 27.159 17.8699 23.2078 17.8699C19.8867 17.8699 16.8323 15.8827 15.4263 12.7915L15.3294 12.5461C14.8446 11.4421 14.6264 10.24 14.6264 9.03787C14.6264 7.8112 14.8446 6.6336 15.3294 5.50507L15.4263 5.25974C16.8323 2.16854 19.8867 0.181335 23.2078 0.181335C27.159 0.181335 30.0922 2.144 31.28 5.55414L31.3527 5.79947ZM27.862 11.1477C28.1044 10.5099 28.2014 9.7984 28.2014 9.03787C28.2014 8.2528 28.1044 7.54134 27.862 6.90347C27.1833 4.89174 25.5591 3.78774 23.329 3.78774C20.6382 3.78774 18.4323 6.14294 18.4323 9.03787C18.4323 11.9083 20.6382 14.2635 23.329 14.2635C25.5591 14.2635 27.1833 13.1595 27.862 11.1477ZM40.4522 17.5755L37.8826 12.9141L35.3131 17.5755C35.3131 17.6 35.2888 17.6245 35.2646 17.6245H31.1436C31.1194 17.6245 31.0952 17.6 31.0952 17.5755C31.0709 17.5509 31.0709 17.5264 31.0952 17.5264L35.7494 9.03787L31.0952 0.549337C31.0952 0.524802 31.0952 0.524802 31.0952 0.524802C31.0709 0.500269 31.0952 0.500269 31.0952 0.475736V0.451202C31.1194 0.451202 31.1194 0.451202 31.1194 0.451202H31.1436H35.2646C35.2888 0.451202 35.3131 0.451202 35.3131 0.475736L37.8826 5.13707L40.4522 0.475736C40.4522 0.451202 40.4764 0.451202 40.5007 0.451202H44.6216C44.6459 0.451202 44.6459 0.451202 44.6701 0.475736C44.6701 0.500269 44.6701 0.524802 44.6701 0.549337L40.0158 9.03787L44.6701 17.5264C44.6701 17.5264 44.6701 17.5509 44.6701 17.5755C44.6459 17.6 44.6459 17.6245 44.6216 17.6245H40.5007C40.4764 17.6245 40.4522 17.6 40.4522 17.5755Z" fill="#C28F2C"/>
<path d="M52.8054 7.41281C52.8496 7.56961 52.8939 7.73761 52.9271 7.89441C52.9935 8.21921 53.0156 8.54401 53.0156 8.89121C53.0156 9.22721 52.9935 9.56321 52.9271 9.87681C52.8939 10.0336 52.8496 10.2016 52.8054 10.3584L52.7722 10.4704C52.2299 12.0384 50.8908 12.9232 49.087 12.9232C47.5709 12.9232 46.1765 12.016 45.5346 10.6048L45.4904 10.4928C45.269 9.98881 45.1694 9.44001 45.1694 8.89121C45.1694 8.33121 45.269 7.79361 45.4904 7.27841L45.5346 7.16641C46.1765 5.75521 47.5709 4.84801 49.087 4.84801C50.8908 4.84801 52.2299 5.74401 52.7722 7.30081L52.8054 7.41281ZM51.2118 9.85441C51.3224 9.56321 51.3667 9.23841 51.3667 8.89121C51.3667 8.53281 51.3224 8.20801 51.2118 7.91681C50.9019 6.99841 50.1604 6.49441 49.1423 6.49441C47.9139 6.49441 46.9069 7.56961 46.9069 8.89121C46.9069 10.2016 47.9139 11.2768 49.1423 11.2768C50.1604 11.2768 50.9019 10.7728 51.2118 9.85441ZM58.2638 4.97121C58.2859 4.97121 58.297 4.98241 58.297 4.99361V6.53921C58.297 6.55041 58.2859 6.57281 58.2638 6.57281H55.3644V8.04001H58.0425C58.0425 8.04001 58.0535 8.05121 58.0646 8.05121C58.0646 8.06241 58.0646 8.07361 58.0646 8.08481L57.6441 9.57441C57.6441 9.58561 57.633 9.59681 57.6219 9.59681H55.3644V12.7776C55.3644 12.7888 55.3533 12.8112 55.3422 12.8112H53.7265C53.7154 12.8112 53.7044 12.7888 53.7044 12.7776V4.99361V4.98241C53.7044 4.98241 53.7044 4.98241 53.7044 4.97121C53.7154 4.97121 53.7154 4.97121 53.7154 4.97121C53.7265 4.97121 53.7265 4.97121 53.7265 4.97121H58.2638Z" fill="#C28F2C"/>
<path d="M113.3 0H111.719V40H113.3V0Z" fill="white"/>
<path d="M131.436 11.4773C131.457 11.4773 131.468 11.488 131.468 11.4987V18.912C131.468 18.9227 131.457 18.944 131.436 18.944H129.898H129.813C129.803 18.944 129.792 18.9333 129.792 18.9227L126.483 14.2933V18.912C126.483 18.9227 126.472 18.944 126.451 18.944H124.902C124.881 18.944 124.87 18.9227 124.87 18.912V12.2133L124.501 11.5093C124.491 11.5093 124.491 11.4987 124.501 11.488C124.501 11.4773 124.512 11.4773 124.522 11.4773H126.451C126.462 11.4773 126.462 11.4773 126.462 11.4773C126.472 11.4773 126.472 11.4773 126.472 11.488L129.876 16.2453V11.4987C129.876 11.488 129.887 11.4773 129.898 11.4773H131.436ZM139.369 13.8027C139.411 13.952 139.453 14.112 139.485 14.2613C139.548 14.5707 139.569 14.88 139.569 15.2107C139.569 15.5307 139.548 15.8507 139.485 16.1493C139.453 16.2987 139.411 16.4587 139.369 16.608L139.337 16.7147C138.821 18.208 137.546 19.0507 135.828 19.0507C134.384 19.0507 133.056 18.1867 132.444 16.8427L132.402 16.736C132.191 16.256 132.097 15.7333 132.097 15.2107C132.097 14.6773 132.191 14.1653 132.402 13.6747L132.444 13.568C133.056 12.224 134.384 11.36 135.828 11.36C137.546 11.36 138.821 12.2133 139.337 13.696L139.369 13.8027ZM137.851 16.128C137.957 15.8507 137.999 15.5413 137.999 15.2107C137.999 14.8693 137.957 14.56 137.851 14.2827C137.556 13.408 136.85 12.928 135.88 12.928C134.71 12.928 133.751 13.952 133.751 15.2107C133.751 16.4587 134.71 17.4827 135.88 17.4827C136.85 17.4827 137.556 17.0027 137.851 16.128ZM141.572 18.912V13.0027H139.728C139.717 13.0027 139.707 12.992 139.696 12.9813L139.296 11.5093C139.285 11.4987 139.296 11.488 139.296 11.488C139.306 11.4773 139.306 11.4773 139.317 11.4773H145.409C145.419 11.4773 145.43 11.4773 145.43 11.488C145.44 11.488 145.44 11.4987 145.44 11.5093L145.029 12.9813C145.029 12.992 145.019 13.0027 145.008 13.0027H143.164V18.912C143.164 18.9227 143.153 18.9333 143.132 18.9333H141.593C141.593 18.9333 141.593 18.9333 141.583 18.9333C141.572 18.9333 141.572 18.9227 141.572 18.9227V18.912ZM153.39 15.072C153.548 15.2107 153.685 15.36 153.801 15.52C154.054 15.8827 154.191 16.3093 154.191 16.7253C154.191 16.7787 154.191 16.832 154.191 16.896L154.17 17.0133C154.064 17.7387 153.569 18.3573 152.863 18.72C152.441 18.9333 151.956 19.0507 151.429 19.0507C150.091 19.0507 148.942 18.24 148.721 17.12C148.71 17.1093 148.721 17.0987 148.731 17.0987L149.09 16.896L149.216 16.832L150.007 16.4053C150.017 16.3947 150.017 16.3947 150.028 16.4053C150.038 16.4053 150.038 16.416 150.049 16.416C150.186 17.0773 150.797 17.5573 151.503 17.5573C152.093 17.5573 152.568 17.2053 152.568 16.7787C152.568 16.544 152.41 16.3093 152.146 16.16C151.956 16.0533 151.767 16.0213 151.577 16.0107C151.514 16 151.45 16 151.387 15.9893C151.155 15.968 150.902 15.9467 150.671 15.8827C150.386 15.7973 150.112 15.68 149.87 15.52C149.332 15.1573 148.953 14.6133 148.847 14.0267L148.826 13.9093C148.826 13.8773 148.826 13.8453 148.816 13.8027C148.816 13.76 148.816 13.7067 148.816 13.6533C148.816 12.3733 150.007 11.328 151.472 11.328C152.641 11.328 153.695 12.0213 154.022 13.0133C154.022 13.024 154.012 13.0347 154.001 13.0453L153.632 13.2053L153.516 13.2587L152.61 13.6533C152.599 13.664 152.589 13.664 152.578 13.6533C152.578 13.6533 152.568 13.6427 152.568 13.632C152.568 13.216 152.093 12.8747 151.503 12.8747C150.913 12.8747 150.439 13.216 150.439 13.632C150.439 13.9947 150.744 14.2293 151.018 14.3253C151.229 14.3893 151.461 14.4107 151.682 14.4213C151.883 14.4427 152.093 14.4533 152.294 14.5067C152.705 14.624 153.084 14.816 153.39 15.072ZM157.845 11.4667C159.047 11.4667 160.027 12.4587 160.027 13.6747C160.027 14.8907 159.047 15.8827 157.845 15.8827H156.549V18.912C156.549 18.9227 156.538 18.9333 156.517 18.9333H154.968C154.947 18.9333 154.936 18.9227 154.936 18.912V12.2133L154.568 11.5093C154.557 11.5093 154.557 11.4987 154.568 11.488C154.568 11.4773 154.578 11.4773 154.589 11.4773H156.296C156.307 11.4667 156.307 11.4667 156.317 11.4667H157.845ZM156.549 13.0027V14.4H157.845C158.225 14.4 158.541 14.0907 158.541 13.696C158.541 13.312 158.225 13.0027 157.845 13.0027H156.549ZM167.521 13.8027C167.563 13.952 167.605 14.112 167.637 14.2613C167.7 14.5707 167.721 14.88 167.721 15.2107C167.721 15.5307 167.7 15.8507 167.637 16.1493C167.605 16.2987 167.563 16.4587 167.521 16.608L167.489 16.7147C166.973 18.208 165.697 19.0507 163.979 19.0507C162.535 19.0507 161.207 18.1867 160.596 16.8427L160.554 16.736C160.343 16.256 160.248 15.7333 160.248 15.2107C160.248 14.6773 160.343 14.1653 160.554 13.6747L160.596 13.568C161.207 12.224 162.535 11.36 163.979 11.36C165.697 11.36 166.973 12.2133 167.489 13.696L167.521 13.8027ZM166.003 16.128C166.108 15.8507 166.15 15.5413 166.15 15.2107C166.15 14.8693 166.108 14.56 166.003 14.2827C165.708 13.408 165.002 12.928 164.032 12.928C162.862 12.928 161.903 13.952 161.903 15.2107C161.903 16.4587 162.862 17.4827 164.032 17.4827C165.002 17.4827 165.708 17.0027 166.003 16.128ZM175.038 11.4773C175.059 11.4773 175.07 11.488 175.07 11.4987V18.912C175.07 18.9227 175.059 18.944 175.038 18.944H173.499H173.415C173.404 18.944 173.394 18.9333 173.394 18.9227L170.084 14.2933V18.912C170.084 18.9227 170.074 18.944 170.053 18.944H168.503C168.482 18.944 168.472 18.9227 168.472 18.912V12.2133L168.103 11.5093C168.092 11.5093 168.092 11.4987 168.103 11.488C168.103 11.4773 168.113 11.4773 168.124 11.4773H170.053C170.063 11.4773 170.063 11.4773 170.063 11.4773C170.074 11.4773 170.074 11.4773 170.074 11.488L173.478 16.2453V11.4987C173.478 11.488 173.489 11.4773 173.499 11.4773H175.038ZM180.388 15.072C180.546 15.2107 180.684 15.36 180.799 15.52C181.052 15.8827 181.189 16.3093 181.189 16.7253C181.189 16.7787 181.189 16.832 181.189 16.896L181.168 17.0133C181.063 17.7387 180.568 18.3573 179.861 18.72C179.44 18.9333 178.955 19.0507 178.428 19.0507C177.09 19.0507 175.941 18.24 175.719 17.12C175.709 17.1093 175.719 17.0987 175.73 17.0987L176.088 16.896L176.215 16.832L177.005 16.4053C177.016 16.3947 177.016 16.3947 177.026 16.4053C177.037 16.4053 177.037 16.416 177.047 16.416C177.184 17.0773 177.796 17.5573 178.502 17.5573C179.092 17.5573 179.566 17.2053 179.566 16.7787C179.566 16.544 179.408 16.3093 179.145 16.16C178.955 16.0533 178.765 16.0213 178.576 16.0107C178.512 16 178.449 16 178.386 15.9893C178.154 15.968 177.901 15.9467 177.669 15.8827C177.385 15.7973 177.111 15.68 176.868 15.52C176.331 15.1573 175.951 14.6133 175.846 14.0267L175.825 13.9093C175.825 13.8773 175.825 13.8453 175.814 13.8027C175.814 13.76 175.814 13.7067 175.814 13.6533C175.814 12.3733 177.005 11.328 178.47 11.328C179.64 11.328 180.694 12.0213 181.021 13.0133C181.021 13.024 181.01 13.0347 181 13.0453L180.631 13.2053L180.515 13.2587L179.608 13.6533C179.598 13.664 179.587 13.664 179.577 13.6533C179.577 13.6533 179.566 13.6427 179.566 13.632C179.566 13.216 179.092 12.8747 178.502 12.8747C177.912 12.8747 177.437 13.216 177.437 13.632C177.437 13.9947 177.743 14.2293 178.017 14.3253C178.228 14.3893 178.46 14.4107 178.681 14.4213C178.881 14.4427 179.092 14.4533 179.292 14.5067C179.703 14.624 180.083 14.816 180.388 15.072ZM188.797 13.8027C188.839 13.952 188.881 14.112 188.913 14.2613C188.976 14.5707 188.997 14.88 188.997 15.2107C188.997 15.5307 188.976 15.8507 188.913 16.1493C188.881 16.2987 188.839 16.4587 188.797 16.608L188.765 16.7147C188.249 18.208 186.974 19.0507 185.256 19.0507C183.812 19.0507 182.484 18.1867 181.872 16.8427L181.83 16.736C181.619 16.256 181.525 15.7333 181.525 15.2107C181.525 14.6773 181.619 14.1653 181.83 13.6747L181.872 13.568C182.484 12.224 183.812 11.36 185.256 11.36C186.974 11.36 188.249 12.2133 188.765 13.696L188.797 13.8027ZM187.279 16.128C187.385 15.8507 187.427 15.5413 187.427 15.2107C187.427 14.8693 187.385 14.56 187.279 14.2827C186.984 13.408 186.278 12.928 185.308 12.928C184.138 12.928 183.179 13.952 183.179 15.2107C183.179 16.4587 184.138 17.4827 185.308 17.4827C186.278 17.4827 186.984 17.0027 187.279 16.128ZM193.627 15.648L195.408 18.9013C195.418 18.9013 195.418 18.912 195.408 18.9227C195.408 18.9333 195.397 18.944 195.387 18.944H193.606C193.595 18.944 193.584 18.9333 193.574 18.9227L191.909 15.8827H191.361V18.912C191.361 18.9227 191.35 18.9333 191.329 18.9333H189.78C189.759 18.9333 189.748 18.9227 189.748 18.912V12.2133L189.379 11.5093C189.369 11.5093 189.369 11.4987 189.379 11.488C189.379 11.4773 189.39 11.4773 189.4 11.4773H191.108C191.118 11.4667 191.118 11.4667 191.129 11.4667H192.657C193.858 11.4667 194.839 12.4587 194.839 13.6747C194.839 14.432 194.459 15.136 193.827 15.5413C193.764 15.584 193.7 15.616 193.627 15.648ZM193.1 14.24C193.258 14.1013 193.353 13.9093 193.353 13.696C193.353 13.312 193.036 13.0027 192.657 13.0027H191.361V14.4H192.657C192.815 14.4 192.973 14.3467 193.1 14.24ZM200.243 11.4773C200.264 11.4773 200.275 11.488 200.275 11.4987V12.9707C200.275 12.9813 200.264 13.0027 200.243 13.0027H197.482V14.4H200.033C200.033 14.4 200.043 14.4107 200.054 14.4107C200.054 14.4213 200.054 14.432 200.054 14.4427L199.653 15.8613C199.653 15.872 199.643 15.8827 199.632 15.8827H197.482V17.4187H200.243C200.264 17.4187 200.275 17.4293 200.275 17.44V18.912C200.275 18.9227 200.264 18.944 200.243 18.944H195.922C195.912 18.944 195.901 18.9227 195.901 18.912V11.4987V11.488C195.901 11.488 195.901 11.488 195.901 11.4773C195.912 11.4773 195.912 11.4773 195.912 11.4773C195.922 11.4773 195.922 11.4773 195.922 11.4773H200.243ZM203.556 11.4773C205.591 11.4773 207.245 13.152 207.245 15.2107C207.245 17.2693 205.591 18.944 203.556 18.944H201.059C201.048 18.944 201.038 18.9227 201.038 18.912V11.4987V11.488C201.038 11.488 201.038 11.488 201.038 11.4773C201.048 11.4773 201.048 11.4773 201.048 11.4773C201.059 11.4773 201.059 11.4773 201.059 11.4773H203.556ZM203.556 17.312C204.705 17.312 205.643 16.3627 205.643 15.2107C205.643 14.048 204.705 13.0987 203.556 13.0987H202.618V17.312H203.556ZM164.606 20.0213L167.473 27.4347C167.473 27.4453 167.473 27.456 167.473 27.456C167.463 27.4667 167.452 27.4667 167.442 27.4667H165.84C165.829 27.4667 165.819 27.4667 165.808 27.456L165.249 26.0053H162.414L161.856 27.456C161.856 27.4667 161.845 27.4773 161.835 27.4773H160.222C160.211 27.4773 160.201 27.4667 160.201 27.456C160.19 27.456 160.19 27.4453 160.201 27.4347L162.741 20.8747L162.298 20.0427C162.288 20.0427 162.288 20.032 162.298 20.0213C162.298 20.0107 162.309 20.0107 162.319 20.0107H162.973H164.575C164.585 20.0107 164.596 20.0107 164.606 20.0213ZM163.837 22.3467L162.983 24.544H164.691L163.837 22.3467ZM168.653 27.4453V21.536H166.809C166.798 21.536 166.788 21.5253 166.777 21.5147L166.377 20.0427C166.366 20.032 166.377 20.0213 166.377 20.0213C166.387 20.0107 166.387 20.0107 166.398 20.0107H172.49C172.5 20.0107 172.511 20.0107 172.511 20.0213C172.521 20.0213 172.521 20.032 172.521 20.0427L172.11 21.5147C172.11 21.5253 172.1 21.536 172.089 21.536H170.245V27.4453C170.245 27.456 170.234 27.4667 170.213 27.4667H168.674C168.674 27.4667 168.674 27.4667 168.664 27.4667C168.653 27.4667 168.653 27.456 168.653 27.456V27.4453ZM179.954 20.0213L182.821 27.4347C182.821 27.4453 182.821 27.456 182.821 27.456C182.81 27.4667 182.8 27.4667 182.789 27.4667H181.187C181.177 27.4667 181.166 27.4667 181.156 27.456L180.597 26.0053H177.762L177.203 27.456C177.203 27.4667 177.193 27.4773 177.182 27.4773H175.57C175.559 27.4773 175.549 27.4667 175.549 27.456C175.538 27.456 175.538 27.4453 175.549 27.4347L178.089 20.8747L177.646 20.0427C177.635 20.0427 177.635 20.032 177.646 20.0213C177.646 20.0107 177.657 20.0107 177.667 20.0107H178.321H179.923C179.933 20.0107 179.944 20.0107 179.954 20.0213ZM179.185 22.3467L178.331 24.544H180.038L179.185 22.3467ZM187.846 25.952C187.857 25.952 187.867 25.952 187.867 25.9627C187.878 25.9627 187.878 25.9733 187.867 25.984L187.467 27.456C187.456 27.4667 187.446 27.4773 187.435 27.4773H182.987C182.977 27.4773 182.966 27.4667 182.966 27.456C182.956 27.4453 182.956 27.4347 182.966 27.4347L183.335 26.7413V20.7467L182.966 20.0427C182.956 20.0427 182.956 20.032 182.966 20.0213C182.966 20.0107 182.977 20.0107 182.987 20.0107H184.916C184.937 20.0107 184.948 20.0213 184.948 20.032V25.952H187.846ZM192.9 25.952C192.911 25.952 192.922 25.952 192.922 25.9627C192.932 25.9627 192.932 25.9733 192.922 25.984L192.521 27.456C192.51 27.4667 192.5 27.4773 192.489 27.4773H188.042C188.031 27.4773 188.021 27.4667 188.021 27.456C188.01 27.4453 188.01 27.4347 188.021 27.4347L188.39 26.7413V20.7467L188.021 20.0427C188.01 20.0427 188.01 20.032 188.021 20.0213C188.021 20.0107 188.031 20.0107 188.042 20.0107H189.97C189.992 20.0107 190.002 20.0213 190.002 20.032V25.952H192.9ZM201.725 22.208C201.725 22.7627 201.514 23.2747 201.177 23.6587C201.557 24.064 201.778 24.608 201.778 25.2053C201.778 26.4533 200.777 27.4773 199.544 27.4773H196.287C196.276 27.4773 196.266 27.4667 196.266 27.456C196.255 27.4453 196.255 27.4347 196.266 27.4347L196.635 26.7413V20.7467L196.266 20.0427C196.255 20.0427 196.255 20.032 196.266 20.0213C196.266 20.0107 196.276 20.0107 196.287 20.0107H197.994C198.005 20 198.005 20 198.015 20H199.544C200.745 20 201.725 20.992 201.725 22.208ZM198.247 22.9333H199.544C199.923 22.9333 200.239 22.624 200.239 22.2293C200.239 21.8453 199.923 21.536 199.544 21.536H198.247V22.9333ZM199.544 24.416H198.247V25.952H199.544C199.955 25.952 200.302 25.6 200.302 25.184C200.302 24.7573 199.955 24.416 199.544 24.416ZM201.631 20.0427C201.62 20.032 201.62 20.032 201.631 20.0213V20.0107H201.641H201.652H203.444C203.454 20.0107 203.465 20.0107 203.465 20.0213L204.582 22.048L205.699 20.0213C205.699 20.0107 205.71 20.0107 205.72 20.0107H207.512C207.523 20.0107 207.523 20.0107 207.533 20.0213C207.533 20.032 207.533 20.0427 207.533 20.0533L205.499 23.7547L205.383 23.9787V27.4453C205.383 27.456 205.362 27.4773 205.351 27.4773H203.813C203.792 27.4773 203.781 27.456 203.781 27.4453V23.9787L201.631 20.0533C201.631 20.0427 201.631 20.0427 201.631 20.0427Z" fill="white"/>
<path d="M230.695 9.37589L218.169 15.2906L221.29 27.4012L223.665 27.1038L223.013 19.489L223.792 19.1348L225.139 26.9189L229.199 26.4108L228.477 18.0058L229.25 17.6555L230.731 26.2194L234.837 25.7047L234.047 16.4917L234.828 16.1374L236.448 25.5031L240.508 24.9948V11.882L230.695 9.37589ZM230.99 27.7439L231.197 28.936L240.508 30.5188V26.5518L230.995 27.7438L230.99 27.7439ZM249.315 25.2586V26.8917H251.289C251.289 27.223 251.205 27.5486 251.046 27.837C250.879 28.1243 250.631 28.3543 250.335 28.4978C249.982 28.6626 249.595 28.7422 249.207 28.7304C248.758 28.7431 248.315 28.617 247.938 28.3686C247.57 28.1078 247.286 27.7415 247.121 27.3159C246.917 26.7838 246.819 26.2154 246.834 25.644C246.819 25.0771 246.919 24.5132 247.128 23.9876C247.299 23.5687 247.585 23.2094 247.952 22.9531C248.322 22.7081 248.756 22.5828 249.198 22.5936C249.427 22.5916 249.656 22.6226 249.877 22.6855C250.074 22.743 250.26 22.8343 250.426 22.9557C250.585 23.0719 250.722 23.216 250.83 23.3811C250.943 23.5578 251.029 23.7515 251.084 23.9552H253.274C253.216 23.4866 253.067 23.0345 252.835 22.6259C252.604 22.2228 252.3 21.8676 251.941 21.5786C251.564 21.2781 251.138 21.0467 250.684 20.8946C250.19 20.7307 249.674 20.6494 249.154 20.654C248.547 20.6488 247.944 20.763 247.379 20.9902C246.836 21.2107 246.345 21.5461 245.938 21.9742C245.513 22.4267 245.184 22.9643 244.973 23.5531C244.732 24.2344 244.615 24.9547 244.627 25.6789C244.627 26.7082 244.819 27.5957 245.203 28.3412C245.566 29.0595 246.125 29.6554 246.812 30.0572C247.509 30.4362 248.283 30.6434 249.072 30.6622C249.862 30.6811 250.644 30.511 251.358 30.1658C251.975 29.8466 252.489 29.3528 252.837 28.7435C253.197 28.1237 253.376 27.3823 253.375 26.5194V25.2574L249.315 25.2586ZM276.585 30.5357V20.7808H283.138V22.5858H278.747V24.7529H282.297V26.558H278.747V28.7304H283.148V30.5356L276.585 30.5357ZM289.5 23.6436C289.49 23.4759 289.445 23.3123 289.368 23.1641C289.29 23.0159 289.182 22.8866 289.051 22.785C288.786 22.5794 288.416 22.4772 287.948 22.4772C287.678 22.468 287.409 22.5118 287.155 22.6064C286.963 22.6777 286.795 22.8023 286.669 22.966C286.56 23.1156 286.501 23.297 286.5 23.4833C286.494 23.6318 286.529 23.7791 286.6 23.9087C286.676 24.0375 286.78 24.1461 286.905 24.2254C287.051 24.3222 287.208 24.4 287.374 24.457C287.567 24.5254 287.763 24.582 287.963 24.6264L288.803 24.8255C289.215 24.9149 289.617 25.0484 290.002 25.2238C290.336 25.3754 290.643 25.5796 290.915 25.8289C291.163 26.0596 291.361 26.3412 291.496 26.6551C291.637 26.994 291.706 27.3591 291.7 27.7271C291.714 28.284 291.557 28.8316 291.251 29.293C290.927 29.7512 290.48 30.1039 289.964 30.3081C289.32 30.5615 288.633 30.6828 287.944 30.665C287.243 30.6802 286.547 30.5567 285.893 30.3015C285.342 30.0834 284.868 29.7014 284.533 29.2051C284.209 28.7172 284.04 28.1086 284.026 27.3794H286.11C286.112 27.661 286.199 27.935 286.359 28.1647C286.519 28.3945 286.744 28.5689 287.003 28.6646C287.297 28.7781 287.608 28.8334 287.922 28.8275C288.21 28.8339 288.496 28.7861 288.767 28.6865C288.98 28.6096 289.17 28.4757 289.316 28.2988C289.444 28.1341 289.515 27.9299 289.515 27.7195C289.517 27.5307 289.453 27.3474 289.335 27.2021C289.19 27.0409 289.01 26.9165 288.809 26.8387C288.526 26.7211 288.235 26.6285 287.936 26.562L286.912 26.3099C286.097 26.1116 285.453 25.7987 284.981 25.3711C284.509 24.9436 284.275 24.3643 284.279 23.6332C284.263 23.0723 284.429 22.5219 284.75 22.0661C285.086 21.6026 285.539 21.2402 286.06 21.0174C286.661 20.7574 287.31 20.6292 287.963 20.6411C288.612 20.6262 289.258 20.7546 289.854 21.0174C290.361 21.2422 290.797 21.6068 291.111 22.07C291.414 22.5341 291.573 23.08 291.568 23.6372L289.5 23.6436ZM275.043 30.5357H272.904V23.1199L272.684 23.1173L270.523 30.5357H268.385L266.282 23.1173L266.009 23.1199V30.5357H263.87V20.7808H267.506L269.342 27.3186H269.564L271.401 20.7808H275.043V30.5357ZM260.501 30.5357H262.818L259.606 20.782H256.67L253.452 30.5357H255.773L256.399 28.3968H259.876L260.501 30.5357ZM256.896 26.6953L257.938 23.1199H258.332L259.379 26.6953H256.896ZM292.226 21.8126C292.127 21.8123 292.03 21.7822 291.947 21.7261C291.864 21.67 291.8 21.5904 291.761 21.4971C291.735 21.4336 291.721 21.3655 291.721 21.2967C291.721 21.2279 291.735 21.1597 291.761 21.0963C291.786 21.035 291.823 20.9792 291.869 20.9321C291.915 20.8853 291.97 20.8476 292.03 20.8208C292.156 20.769 292.296 20.769 292.423 20.8208C292.483 20.8473 292.537 20.8851 292.584 20.9321C292.63 20.9793 292.667 21.035 292.693 21.0963C292.719 21.1597 292.733 21.2279 292.733 21.2967C292.733 21.3655 292.719 21.4336 292.693 21.4971C292.667 21.5584 292.63 21.6141 292.584 21.6613C292.538 21.7086 292.483 21.7464 292.423 21.7726C292.361 21.7991 292.294 21.8127 292.226 21.8126ZM292.226 21.6717C292.292 21.6725 292.356 21.6551 292.413 21.6213C292.467 21.5902 292.513 21.5458 292.546 21.4921C292.578 21.4346 292.595 21.3695 292.595 21.3032C292.595 21.237 292.578 21.1718 292.546 21.1144C292.512 21.0607 292.466 21.0163 292.411 20.9852C292.355 20.9522 292.291 20.9348 292.226 20.9348C292.161 20.9348 292.097 20.9522 292.041 20.9852C291.989 21.0173 291.946 21.0616 291.914 21.1144C291.881 21.1715 291.863 21.2367 291.863 21.3031C291.863 21.3696 291.881 21.4348 291.914 21.4919C291.946 21.5447 291.989 21.589 292.041 21.6212C292.097 21.6548 292.161 21.6723 292.226 21.6717ZM292.041 21.5229V21.0486H292.267C292.297 21.0479 292.327 21.0545 292.354 21.0679C292.379 21.0798 292.4 21.0987 292.414 21.1221C292.429 21.148 292.436 21.1775 292.436 21.2075C292.437 21.2376 292.429 21.2673 292.413 21.2927C292.399 21.3167 292.377 21.3354 292.352 21.346C292.324 21.3589 292.294 21.365 292.263 21.3639H292.111V21.2709H292.237C292.254 21.2717 292.271 21.2662 292.283 21.2554C292.289 21.249 292.294 21.2415 292.297 21.2333C292.3 21.2251 292.302 21.2163 292.301 21.2075C292.302 21.1986 292.301 21.1898 292.298 21.1815C292.294 21.1732 292.29 21.1658 292.283 21.1596C292.271 21.1487 292.254 21.1432 292.237 21.144H292.168V21.5229H292.041ZM292.344 21.3056L292.448 21.5231H292.308L292.212 21.3056H292.344ZM253.985 9.4664H256.147V19.2213H253.985V9.4664ZM266.417 14.3439C266.417 15.4145 266.217 16.3197 265.819 17.0595C265.449 17.7735 264.886 18.3645 264.197 18.7624C263.488 19.1478 262.698 19.3494 261.895 19.3494C261.091 19.3494 260.3 19.1478 259.592 18.7624C258.903 18.3629 258.34 17.7707 257.97 17.0555C257.572 16.309 257.373 15.4038 257.373 14.3399C257.373 13.2762 257.572 12.369 257.97 11.6181C258.339 10.9062 258.9 10.3167 259.587 9.91903C260.296 9.53445 261.087 9.33333 261.889 9.33333C262.692 9.33333 263.483 9.53445 264.192 9.91903C264.881 10.317 265.444 10.9079 265.814 11.622C266.212 12.3668 266.411 13.2741 266.411 14.3439M264.211 14.3439C264.228 13.7699 264.131 13.1984 263.928 12.6629C263.767 12.2443 263.488 11.8842 263.126 11.6285C262.755 11.396 262.328 11.273 261.892 11.273C261.457 11.273 261.03 11.396 260.659 11.6285C260.296 11.8844 260.015 12.2444 259.854 12.6629C259.472 13.7498 259.472 14.938 259.854 16.0249C260.015 16.4437 260.295 16.8039 260.659 17.0593C261.03 17.2918 261.457 17.4149 261.892 17.4149C262.327 17.4149 262.755 17.2918 263.126 17.0593C263.488 16.804 263.768 16.4438 263.928 16.0249C264.131 15.4893 264.228 14.9179 264.211 14.3439ZM249.441 15.8206L250.552 19.2213H252.925L251.69 15.5581H250.012L249.912 15.2425C250.231 15.1792 250.778 15.0808 251.262 14.7447C251.602 14.5093 251.88 14.1935 252.073 13.8244C252.267 13.4553 252.369 13.0439 252.372 12.6254C252.387 12.0475 252.243 11.4767 251.959 10.9768C251.68 10.4927 251.267 10.1038 250.772 9.85957C250.191 9.58522 249.555 9.45237 248.915 9.47157H245.055V19.2213H247.219V15.8206H249.441ZM249.4 13.8021C249.106 13.9125 248.793 13.9643 248.48 13.9547H247.219V11.2573H248.476C248.79 11.2482 249.102 11.3027 249.395 11.4178C249.627 11.5117 249.823 11.6795 249.953 11.8961C250.087 12.1145 250.153 12.3685 250.143 12.6254C250.154 12.8786 250.089 13.1288 249.956 13.3431C249.825 13.5537 249.63 13.7149 249.4 13.8021ZM266.621 9.4664V11.2768H270.336L270.438 11.5935C270.123 11.6556 269.592 11.7514 269.115 12.072V19.2238H271.255V11.2716H273.743V9.46106L266.621 9.4664Z" fill="white"/>
</g>
<defs>
<clipPath id="clip0_1_18">
<rect width="293" height="40" fill="white"/>
</clipPath>
</defs>
</svg>
